<svg width="52" height="52" viewBox="0 0 52 52" fill="none" xmlns="http://www.w3.org/2000/svg">
<path d="M34.5719 47.7215C29.5077 44.0799 20.2235 34.0938 27.5067 28.0624C27.747 27.8601 27.8134 27.6103 27.7059 27.3132L27.5921 27.0192C27.4467 26.6209 27.2064 26.5545 26.8713 26.8201C22.9831 29.88 22.177 33.607 24.4531 38.001C26.805 42.5467 30.5952 46.7416 35.8237 50.5855C36.1525 50.8258 36.3042 50.7436 36.2789 50.339L36.203 49.2578C36.1841 48.967 36.3074 48.7552 36.5729 48.6225C42.8256 45.5814 47.1185 40.9219 49.4514 34.6439C54.8569 20.0679 45.5537 3.91758 30.2095 1.35705C11.8591 -1.7061 -3.20061 15.4494 2.0627 33.2783C5.65692 45.436 18.2509 52.7667 30.5699 50.5855C30.7734 50.5467 30.9586 50.4423 31.0971 50.2883C31.2357 50.1343 31.32 49.9392 31.3372 49.7327C31.3544 49.5263 31.3036 49.3199 31.1924 49.1451C31.0812 48.9703 30.9159 48.8367 30.7216 48.7647C22.6038 45.9007 13.1678 36.7587 18.2604 27.3891C18.4248 27.0982 18.4532 26.7948 18.3457 26.4787C17.3279 23.4629 17.4669 20.5167 18.763 17.6401C18.9147 17.305 18.8073 17.1406 18.4406 17.147L18.0518 17.1564C17.8927 17.1597 17.7386 17.2069 17.6075 17.2926C17.4764 17.3783 17.3739 17.4989 17.312 17.6401C16.0476 20.5167 15.9243 23.444 16.9422 26.4218C16.996 26.5711 17.0171 26.7311 17.004 26.8912C16.9909 27.0514 16.944 27.2082 16.8663 27.3511C12.0108 36.2656 20.4226 45.6447 28.0473 48.9828C28.1157 49.0167 28.1713 49.072 28.2054 49.1403C28.2396 49.2087 28.2505 49.2863 28.2366 49.3614C28.2226 49.4364 28.1846 49.5049 28.1282 49.5564C28.0717 49.6079 28.0001 49.6396 27.924 49.6467C18.8958 50.0545 11.328 46.4413 6.28282 38.9019C-2.1195 26.3174 3.50418 9.40848 17.5776 3.88913C28.4077 -0.368933 41.087 4.25898 46.5874 14.4537C53.1025 26.545 48.9298 40.0115 37.104 46.9723C37.0371 47.0117 36.9605 47.0315 36.8829 47.0297C36.8053 47.028 36.7298 47.0046 36.6648 46.9622C36.5998 46.9198 36.5478 46.8602 36.5149 46.7899C36.4819 46.7197 36.4691 46.6416 36.4781 46.5646C37.1893 40.846 37.4264 34.1318 35.1219 28.7073C34.9892 28.3911 34.7552 28.2742 34.4202 28.3564C34.1673 28.4133 33.9997 28.5618 33.9175 28.8021C33.8417 29.0234 33.8922 29.3237 34.0693 29.703C36.3927 34.7292 35.8522 42.2117 35.0081 47.5413C34.9576 47.8385 34.8121 47.8986 34.5719 47.7215Z" stroke="#D9D1C4" stroke-width="2"/>
<path d="M29.2137 12.5096L22.9736 13.126C22.714 13.1568 22.4523 13.1071 22.2244 12.9837L18.9242 11.2578C18.8289 11.2096 18.7211 11.1908 18.6149 11.2038C18.5087 11.2169 18.409 11.2612 18.329 11.3309C18.249 11.4007 18.1924 11.4926 18.1666 11.5946C18.1408 11.6966 18.1471 11.804 18.1845 11.9026C19.1392 14.4632 20.6281 16.6443 22.6512 18.4462C22.8598 18.6359 22.9547 18.8698 22.9357 19.148C22.7081 22.3439 24.9177 24.3828 28.0567 23.5198C28.4171 23.4187 28.6827 23.5325 28.8534 23.8612L30.6362 27.171C30.6829 27.2614 30.7528 27.3376 30.8389 27.3918C30.925 27.446 31.0241 27.4761 31.1257 27.479C31.2274 27.4819 31.328 27.4575 31.417 27.4083C31.5061 27.3591 31.5803 27.287 31.632 27.1994C35.2483 21.1363 34.7331 15.5917 30.0862 10.5655C29.9755 10.4221 29.8124 10.3286 29.6328 10.3055C29.4532 10.2823 29.2717 10.3315 29.1284 10.4422C28.985 10.5529 28.8915 10.7159 28.8684 10.8956C28.8452 11.0752 28.8944 11.2566 29.0051 11.4L29.4224 12.0544C29.5994 12.3262 29.5298 12.478 29.2137 12.5096Z" stroke="#D9D1C4" stroke-width="2"/>
<path d="M22.3762 14.4537L21.3236 14.0364C20.9253 13.8783 20.8241 13.9921 21.0201 14.3778C21.7219 15.7497 22.2688 16.5653 22.6607 16.8245C25.8092 18.9298 28.5752 21.4556 30.9587 24.4018C31.218 24.7242 31.4266 24.6926 31.5846 24.3069C32.8681 21.1584 32.8934 18.0036 31.6605 14.8425C31.6052 14.7058 31.5164 14.5849 31.4023 14.4905C31.2881 14.3962 31.152 14.3314 31.0062 14.3019C28.452 13.8404 25.9104 13.9131 23.3815 14.52C23.048 14.6005 22.6974 14.5773 22.3762 14.4537Z" stroke="#D9D1C4" stroke-width="2"/>
<path d="M24.1686 20.4472C24.6049 21.5663 25.4236 22.2617 26.6248 22.5336C27.4467 22.7232 27.5416 22.5399 26.9094 21.9835L24.7187 20.0584C24.6593 20.0112 24.5861 19.9846 24.5103 19.9824C24.4344 19.9803 24.3599 20.0029 24.2979 20.0467C24.236 20.0905 24.1899 20.1532 24.1666 20.2254C24.1433 20.2976 24.144 20.3754 24.1686 20.4472Z" stroke="#D9D1C4" stroke-width="2"/>
<path d="M35.0081 47.5413C35.8522 42.2117 36.3927 34.7292 34.0693 29.703C33.8922 29.3237 33.8417 29.0234 33.9175 28.8021C33.9997 28.5618 34.1673 28.4133 34.4202 28.3564C34.7552 28.2742 34.9892 28.3911 35.1219 28.7073C37.4264 34.1318 37.1893 40.846 36.4781 46.5646C36.4691 46.6416 36.4819 46.7197 36.5148 46.7899C36.5478 46.8602 36.5998 46.9198 36.6648 46.9622C36.7298 47.0046 36.8053 47.028 36.8829 47.0298C36.9605 47.0315 37.0371 47.0117 37.104 46.9723C48.9298 40.0115 53.1025 26.545 46.5874 14.4537C41.087 4.25898 28.4077 -0.368933 17.5776 3.88913C3.50418 9.40848 -2.1195 26.3174 6.28282 38.9019C11.328 46.4413 18.8958 50.0545 27.924 49.6467C28.0001 49.6396 28.0717 49.6079 28.1282 49.5564C28.1846 49.5049 28.2226 49.4365 28.2366 49.3614C28.2505 49.2863 28.2396 49.2087 28.2054 49.1403C28.1713 49.072 28.1157 49.0167 28.0473 48.9828C20.4226 45.6447 12.0108 36.2655 16.8663 27.3511C16.944 27.2082 16.9909 27.0514 17.004 26.8912C17.0171 26.7311 16.996 26.5711 16.9422 26.4218C15.9243 23.444 16.0476 20.5167 17.312 17.6401C17.3739 17.4989 17.4764 17.3783 17.6075 17.2926C17.7386 17.2069 17.8927 17.1597 18.0518 17.1564L18.4406 17.147C18.8073 17.1406 18.9147 17.305 18.763 17.6401C17.4669 20.5167 17.3279 23.4629 18.3457 26.4787C18.4532 26.7948 18.4248 27.0982 18.2604 27.3891C13.1678 36.7587 22.6038 45.9007 30.7216 48.7647C30.9159 48.8367 31.0812 48.9703 31.1924 49.1451C31.3036 49.3199 31.3544 49.5263 31.3372 49.7327C31.32 49.9392 31.2357 50.1343 31.0971 50.2883C30.9586 50.4423 30.7734 50.5467 30.5699 50.5855C18.2509 52.7667 5.65691 45.436 2.0627 33.2783C-3.20061 15.4494 11.8591 -1.7061 30.2095 1.35705C45.5537 3.91758 54.8569 20.0679 49.4514 34.6439C47.1185 40.9219 42.8256 45.5814 36.5729 48.6225C36.3074 48.7552 36.1841 48.967 36.203 49.2578L36.2789 50.339C36.3042 50.7436 36.1525 50.8258 35.8237 50.5855C30.5952 46.7416 26.805 42.5467 24.4531 38.001C22.177 33.607 22.9831 29.88 26.8713 26.8201C27.2064 26.5545 27.4467 26.6209 27.5921 27.0192L27.7059 27.3132C27.8134 27.6103 27.747 27.8601 27.5067 28.0624C20.2235 34.0938 29.5077 44.0799 34.5719 47.7215C34.8121 47.8986 34.9576 47.8385 35.0081 47.5413Z" fill="#896A36"/>
<path d="M29.4224 12.0544L29.0051 11.4C28.8944 11.2566 28.8452 11.0752 28.8684 10.8956C28.8915 10.7159 28.985 10.5529 29.1284 10.4422C29.2717 10.3315 29.4532 10.2823 29.6328 10.3055C29.8124 10.3286 29.9755 10.4221 30.0862 10.5655C34.7331 15.5917 35.2483 21.1363 31.632 27.1994C31.5803 27.287 31.5061 27.3591 31.417 27.4083C31.328 27.4575 31.2274 27.4819 31.1257 27.479C31.0241 27.4761 30.925 27.446 30.8389 27.3918C30.7528 27.3376 30.6829 27.2614 30.6362 27.1709L28.8534 23.8612C28.6827 23.5325 28.4171 23.4187 28.0567 23.5198C24.9177 24.3828 22.7081 22.3439 22.9357 19.148C22.9547 18.8698 22.8598 18.6359 22.6512 18.4462C20.6281 16.6443 19.1392 14.4632 18.1845 11.9026C18.1471 11.804 18.1408 11.6966 18.1666 11.5946C18.1924 11.4926 18.249 11.4007 18.329 11.3309C18.409 11.2612 18.5087 11.2169 18.6149 11.2038C18.7211 11.1908 18.8289 11.2096 18.9242 11.2578L22.2244 12.9837C22.4523 13.1071 22.714 13.1568 22.9736 13.126L29.2137 12.5096C29.5298 12.478 29.5994 12.3262 29.4224 12.0544ZM22.3762 14.4537L21.3235 14.0364C20.9252 13.8783 20.8241 13.9921 21.02 14.3778C21.7218 15.7497 22.2687 16.5653 22.6607 16.8245C25.8092 18.9299 28.5752 21.4556 30.9587 24.4018C31.2179 24.7242 31.4265 24.6926 31.5846 24.307C32.868 21.1585 32.8933 18.0036 31.6605 14.8425C31.6051 14.7058 31.5164 14.5849 31.4022 14.4906C31.288 14.3962 31.1519 14.3314 31.0061 14.3019C28.4519 13.8404 25.9103 13.9131 23.3814 14.5201C23.0479 14.6005 22.6973 14.5773 22.3762 14.4537ZM24.1685 20.4472C24.6048 21.5662 25.4235 22.2617 26.6248 22.5336C27.4466 22.7232 27.5415 22.5399 26.9093 21.9835L24.7186 20.0584C24.6592 20.0112 24.586 19.9845 24.5102 19.9824C24.4343 19.9803 24.3598 20.0028 24.2978 20.0466C24.2359 20.0905 24.1898 20.1532 24.1665 20.2254C24.1432 20.2976 24.1439 20.3754 24.1685 20.4472Z" fill="#896A36"/>
<path d="M24.1686 20.4472C24.144 20.3754 24.1433 20.2976 24.1666 20.2254C24.1899 20.1532 24.236 20.0905 24.2979 20.0467C24.3599 20.0029 24.4344 19.9803 24.5103 19.9824C24.5861 19.9846 24.6593 20.0112 24.7187 20.0584L26.9094 21.9835C27.5416 22.5399 27.4467 22.7232 26.6248 22.5336C25.4236 22.2617 24.6049 21.5663 24.1686 20.4472Z" fill="white"/>
</svg>
